<?xml version="1.0" encoding="UTF-8"?><svg id="Layer_2" xmlns="http://www.w3.org/2000/svg" viewBox="0 0 452.63 133.82"><defs><style>.cls-1{fill:#e67e22;}</style></defs><g id="Layer_1-2"><g><path d="M0,56.24c0-13.97,8.85-23.09,22.96-23.09s22.96,9.13,22.96,23.09v54.49c0,13.97-8.85,23.09-22.96,23.09S0,124.7,0,110.73V56.24Zm31.25-2.07c0-4.98-3.18-8.44-8.3-8.44s-8.3,3.46-8.3,8.44v58.64c0,4.98,3.18,8.44,8.3,8.44s8.3-3.46,8.3-8.44V54.17Z"/><path d="M128.34,41.03c0-4.84,2.49-7.33,6.5-7.33s5.53,1.94,6.64,5.12l19.5,53.66V41.03c0-4.43,2.35-7.33,6.92-7.33s6.64,2.9,6.64,7.33V125.94c0,4.15-2.07,7.33-6.36,7.33-3.87,0-5.67-2.49-6.64-5.12l-19.64-53.66v51.44c0,4.29-2.63,7.33-6.78,7.33s-6.78-3.04-6.78-7.33V41.03Z"/><path d="M191.89,41.03c0-4.29,2.9-7.33,7.33-7.33s7.33,3.04,7.33,7.33V125.94c0,4.29-3.04,7.33-7.33,7.33s-7.33-3.04-7.33-7.33V41.03Z"/><path d="M238.58,125.94c0,4.29-3.04,7.33-7.33,7.33s-7.33-3.04-7.33-7.33V42.41c0-4.29,3.04-7.33,7.33-7.33h25.72c3.87,0,6.5,2.77,6.5,6.5s-2.63,6.5-6.5,6.5h-18.39v28.9h13.83c3.73,0,6.5,2.77,6.5,6.5s-2.77,6.5-6.5,6.5h-13.83v35.96Z"/><path d="M280.84,56.24c0-13.97,8.85-23.09,22.96-23.09s22.96,9.13,22.96,23.09v54.49c0,13.97-8.85,23.09-22.96,23.09s-22.96-9.13-22.96-23.09V56.24Zm31.25-2.07c0-4.98-3.18-8.44-8.3-8.44s-8.3,3.46-8.3,8.44v58.64c0,4.98,3.18,8.44,8.3,8.44s8.3-3.46,8.3-8.44V54.17Z"/><path d="M344.13,56.24c0-13.97,8.85-23.09,22.96-23.09s22.96,9.13,22.96,23.09v54.49c0,13.97-8.85,23.09-22.96,23.09s-22.96-9.13-22.96-23.09V56.24Zm31.25-2.07c0-4.98-3.18-8.44-8.3-8.44s-8.3,3.46-8.3,8.44v58.64c0,4.98,3.18,8.44,8.3,8.44s8.3-3.46,8.3-8.44V54.17Z"/><path d="M414.74,35.08h12.72c17.15,0,25.17,10.1,25.17,25.58v45.64c0,15.49-8.02,25.58-25.17,25.58h-12.72c-4.29,0-7.33-3.04-7.33-7.33V42.41c0-4.29,3.04-7.33,7.33-7.33Zm12.86,83.94c6.92,0,10.37-4.15,10.37-10.51V58.46c0-6.36-3.46-10.51-10.37-10.51h-5.53V119.03h5.53Z"/><g><path class="cls-1" d="M79.96,7.18C79.97,2.97,82.82,0,87.16,0c4.2,0,7.18,2.99,7.18,7.19l-.05,18.45c0,4.2-2.99,7.18-7.19,7.18-4.34,0-7.18-2.99-7.18-7.19l.05-18.45Z"/><path class="cls-1" d="M63.28,54.83c.02-17.59,10.71-31.84,23.88-31.82,13.17,.01,23.83,14.28,23.81,31.87-.02,17.59-10.68,1.24-23.84,1.23-13.17-.01-23.86,16.31-23.84-1.28Z"/><path class="cls-1" d="M107.4,133.06l3.57-77.21c.02-.46-.3-.85-.72-.85h-6.97c-.41,0-.74,.38-.72,.85l3.4,77.22c.05,1.02,1.38,1.02,1.43,0Z"/><path class="cls-1" d="M94.3,133.05l3.57-77.21c.02-.46-.3-.85-.72-.85h-6.97c-.41,0-.74,.38-.72,.85l3.4,77.22c.05,1.02,1.38,1.02,1.43,0Z"/><path class="cls-1" d="M81.21,133.03l3.57-77.21c.02-.46-.3-.85-.72-.85h-6.97c-.41,0-.74,.38-.72,.85l3.4,77.22c.05,1.02,1.38,1.02,1.43,0Z"/><path class="cls-1" d="M68.12,133.02l3.57-77.21c.02-.46-.3-.85-.72-.85h-6.97c-.41,0-.74,.38-.72,.85l3.4,77.22c.05,1.02,1.38,1.02,1.43,0Z"/></g></g></g></svg>